<svg width="23" height="23" viewBox="0 0 23 23" fill="none" xmlns="http://www.w3.org/2000/svg">
<path opacity="0.1" fill-rule="evenodd" clip-rule="evenodd" d="M0.0854492 11.7743C0.0854492 5.62346 5.0717 0.637207 11.2226 0.637207C17.3734 0.637207 22.3597 5.62346 22.3597 11.7743C22.3597 17.9252 17.3734 22.9114 11.2226 22.9114C5.0717 22.9114 0.0854492 17.9252 0.0854492 11.7743Z" fill="white"/>
<path fill-rule="evenodd" clip-rule="evenodd" d="M15.8637 7.94559C16.3749 8.08585 16.7774 8.49914 16.914 9.02398C17.1623 9.97519 17.1623 11.9599 17.1623 11.9599C17.1623 11.9599 17.1623 13.9445 16.914 14.8958C16.7774 15.4207 16.3749 15.8339 15.8637 15.9743C14.9374 16.2291 11.2225 16.2291 11.2225 16.2291C11.2225 16.2291 7.50764 16.2291 6.58123 15.9743C6.07007 15.8339 5.66752 15.4207 5.5309 14.8958C5.28271 13.9445 5.28271 11.9599 5.28271 11.9599C5.28271 11.9599 5.28271 9.97519 5.5309 9.02398C5.66752 8.49914 6.07007 8.08585 6.58123 7.94559C7.50764 7.69067 11.2225 7.69067 11.2225 7.69067C11.2225 7.69067 14.9374 7.69067 15.8637 7.94559ZM10.1088 10.2893V14.0017L13.0787 12.1455L10.1088 10.2893Z" fill="white"/>
</svg>
